<?plantuml 1.2026.2?><svg xmlns="http://www.w3.org/2000/svg" xmlns:xlink="http://www.w3.org/1999/xlink" contentStyleType="text/css" data-diagram-type="DESCRIPTION" height="589px" preserveAspectRatio="none" style="width:999px;height:589px;background:#FFFFFF;" version="1.1" viewBox="0 0 999 589" width="999px" zoomAndPan="magnify"><title>Nozzles Budget App &#8212; Component Architecture</title><defs/><g><g class="title" data-source-line="1"><text fill="#000000" font-family="sans-serif" font-size="14" font-weight="bold" lengthAdjust="spacing" textLength="344.8594" x="320.4771" y="23.5352">Nozzles Budget App &#8212; Component Architecture</text></g><!--cluster src/--><g class="cluster" data-qualified-name="src." data-source-line="8" id="ent0003"><path d="M100.9,43.4883 L131.5475,43.4883 A3.75,3.75 0 0 1 134.0475,45.9883 L141.0475,65.9766 L784.9,65.9766 A2.5,2.5 0 0 1 787.4,68.4766 L787.4,444.9083 A2.5,2.5 0 0 1 784.9,447.4083 L100.9,447.4083 A2.5,2.5 0 0 1 98.4,444.9083 L98.4,45.9883 A2.5,2.5 0 0 1 100.9,43.4883" fill="none" style="stroke:#000000;stroke-width:1.5;"/><line style="stroke:#000000;stroke-width:1.5;" x1="98.4" x2="141.0475" y1="65.9766" y2="65.9766"/><text fill="#000000" font-family="sans-serif" font-size="14" font-weight="bold" lengthAdjust="spacing" textLength="29.6475" x="102.4" y="59.0234">src/</text></g><!--entity main--><g class="entity" data-qualified-name="src..main" data-source-line="9" id="ent0004"><rect fill="#F1F1F1" height="52.9766" rx="2.5" ry="2.5" style="stroke:#181818;stroke-width:0.5;" width="99.2559" x="412.77" y="78.4883"/><text fill="#000000" font-family="sans-serif" font-size="14" lengthAdjust="spacing" textLength="49.3623" x="422.77" y="102.0234">main.js</text><text fill="#000000" font-family="sans-serif" font-size="14" lengthAdjust="spacing" textLength="79.2559" x="422.77" y="118.5117">(entrypoint)</text></g><!--entity store--><g class="entity" data-qualified-name="src..store" data-source-line="10" id="ent0005"><rect fill="#F1F1F1" height="52.9766" rx="2.5" ry="2.5" style="stroke:#181818;stroke-width:0.5;" width="102.2227" x="411.29" y="220.2283"/><text fill="#000000" font-family="sans-serif" font-size="14" lengthAdjust="spacing" textLength="82.2227" x="421.29" y="243.7634">BudgetStore</text><text fill="#000000" font-family="sans-serif" font-size="14" lengthAdjust="spacing" textLength="77.1572" x="421.29" y="260.2517">(pure logic)</text></g><!--entity storage--><g class="entity" data-qualified-name="src..storage" data-source-line="11" id="ent0006"><rect fill="#F1F1F1" height="52.9766" rx="2.5" ry="2.5" style="stroke:#181818;stroke-width:0.5;" width="162.6592" x="556.07" y="378.4383"/><text fill="#000000" font-family="sans-serif" font-size="14" lengthAdjust="spacing" textLength="142.6592" x="566.07" y="401.9734">LocalStorage adapter</text><text fill="#000000" font-family="sans-serif" font-size="14" lengthAdjust="spacing" textLength="141.7363" x="566.07" y="418.4617">(NullStorage in tests)</text></g><!--entity ui--><g class="entity" data-qualified-name="src..ui" data-source-line="12" id="ent0007"><rect fill="#F1F1F1" height="52.9766" rx="2.5" ry="2.5" style="stroke:#181818;stroke-width:0.5;" width="125.916" x="114.44" y="378.4383"/><text fill="#000000" font-family="sans-serif" font-size="14" lengthAdjust="spacing" textLength="28.5605" x="124.44" y="401.9734">ui.js</text><text fill="#000000" font-family="sans-serif" font-size="14" lengthAdjust="spacing" textLength="105.916" x="124.44" y="418.4617">(DOM bindings)</text></g><!--entity User--><g class="entity" data-qualified-name="User" data-source-line="6" id="ent0002"><ellipse cx="21.4026" cy="216.9683" fill="#F1F1F1" rx="8" ry="8" style="stroke:#181818;stroke-width:0.5;"/><path d="M21.4026,224.9683 L21.4026,251.9683 M8.4026,232.9683 L34.4026,232.9683 M21.4026,251.9683 L8.4026,266.9683 M21.4026,251.9683 L34.4026,266.9683" fill="none" style="stroke:#181818;stroke-width:0.5;"/><text fill="#000000" font-family="sans-serif" font-size="14" lengthAdjust="spacing" textLength="30.3652" x="6.22" y="282.0034">User</text></g><!--entity ls--><g class="entity" data-qualified-name="ls" data-source-line="15" id="ent0008"><path d="M585.92,520.4083 C585.92,510.4083 637.4005,510.4083 637.4005,510.4083 C637.4005,510.4083 688.8809,510.4083 688.8809,520.4083 L688.8809,562.3848 C688.8809,572.3848 637.4005,572.3848 637.4005,572.3848 C637.4005,572.3848 585.92,572.3848 585.92,562.3848 L585.92,520.4083" fill="#F1F1F1" style="stroke:#181818;stroke-width:0.5;"/><path d="M585.92,520.4083 C585.92,530.4083 637.4005,530.4083 637.4005,530.4083 C637.4005,530.4083 688.8809,530.4083 688.8809,520.4083" fill="none" style="stroke:#181818;stroke-width:0.5;"/><text fill="#000000" font-family="sans-serif" font-size="14" lengthAdjust="spacing" textLength="53.833" x="595.92" y="547.9434">Browser</text><text fill="#000000" font-family="sans-serif" font-size="14" lengthAdjust="spacing" textLength="82.9609" x="595.92" y="564.4317">localStorage</text></g><g class="entity" data-qualified-name="GMN17" data-source-line="27" id="ent0018"><path d="M806,211.0883 L806,282.3305 L992.8135,282.3305 L992.8135,221.0883 L982.8135,211.0883 L806,211.0883" fill="#FEFFDD" style="stroke:#181818;stroke-width:0.5;"/><path d="M982.8135,211.0883 L982.8135,221.0883 L992.8135,221.0883 L982.8135,211.0883" fill="#FEFFDD" style="stroke:#181818;stroke-width:1;"/><text fill="#000000" font-family="sans-serif" font-size="13" lengthAdjust="spacing" textLength="101.9561" x="812" y="228.6566">No DOM access.</text><text fill="#000000" font-family="sans-serif" font-size="13" lengthAdjust="spacing" textLength="155.7905" x="812" y="243.9672">Returns {ok, error?} from</text><text fill="#000000" font-family="sans-serif" font-size="13" lengthAdjust="spacing" textLength="165.8135" x="812" y="259.2777">every mutation. Validation</text><text fill="#000000" font-family="sans-serif" font-size="13" lengthAdjust="spacing" textLength="64.2129" x="812" y="274.5883">lives here.</text></g><g class="entity" data-qualified-name="GMN20" data-source-line="34" id="ent0021"><path d="M803.81,376.9583 L803.81,432.8899 L979.0009,432.8899 L979.0009,386.9583 L969.0009,376.9583 L803.81,376.9583" fill="#FEFFDD" style="stroke:#181818;stroke-width:0.5;"/><path d="M969.0009,376.9583 L969.0009,386.9583 L979.0009,386.9583 L969.0009,376.9583" fill="#FEFFDD" style="stroke:#181818;stroke-width:1;"/><text fill="#000000" font-family="sans-serif" font-size="13" lengthAdjust="spacing" textLength="116.1431" x="809.81" y="394.5266">No business rules.</text><text fill="#000000" font-family="sans-serif" font-size="13" lengthAdjust="spacing" textLength="144.0537" x="809.81" y="409.8372">Just renders snapshots</text><text fill="#000000" font-family="sans-serif" font-size="13" lengthAdjust="spacing" textLength="154.1909" x="809.81" y="425.1477">+ dispatches store calls.</text></g><!--link User to ui--><g class="link" data-entity-1="ent0002" data-entity-2="ent0007" data-link-type="dependency" data-source-line="17" id="lnk9"><path d="M10.11,285.2383 C6.42,305.2683 6,329.3383 18.4,346.9583 C40.01,377.6483 73.8668,390.7611 108.2168,397.3311" fill="none" id="User-to-ui" style="stroke:#181818;stroke-width:1;"/><polygon fill="#181818" points="114.11,398.4583,106.0217,392.8387,109.199,397.519,104.5188,400.6963,114.11,398.4583" style="stroke:#181818;stroke-width:1;"/><text fill="#000000" font-family="sans-serif" font-size="13" lengthAdjust="spacing" textLength="86.9502" x="19.4" y="336.0266">clicks / forms</text></g><!--link ui to store--><g class="link" data-entity-1="ent0007" data-entity-2="ent0005" data-link-type="dependency" data-source-line="18" id="lnk10"><path d="M159.34,378.0383 C148.35,358.7983 138.95,332.8983 153.4,314.9583 C161.52,304.8883 319.322,274.29 405.082,258.27" fill="none" id="ui-to-store" style="stroke:#181818;stroke-width:1;"/><polygon fill="#181818" points="410.98,257.1683,401.3985,254.8889,406.065,258.0864,402.8675,262.7529,410.98,257.1683" style="stroke:#181818;stroke-width:1;"/><text fill="#000000" font-family="sans-serif" font-size="13" lengthAdjust="spacing" textLength="153.6387" x="188.1346" y="328.5266">setBudget / addExpense</text><text fill="#000000" font-family="sans-serif" font-size="13" lengthAdjust="spacing" textLength="221.1079" x="154.4" y="343.8372">/ removeExpense / updateExpense</text></g><!--link store to ui--><g class="link" data-entity-1="ent0005" data-entity-2="ent0007" data-link-type="dependency" data-source-line="19" id="lnk11"><path d="M443.84,273.5583 C424.74,299.5083 395.67,337.0183 380.4,346.9583 C338.22,374.4083 288.6992,387.7684 246.4192,395.2084" fill="none" id="store-to-ui" style="stroke:#181818;stroke-width:1;"/><polygon fill="#181818" points="240.51,396.2483,250.067,398.628,245.4343,395.3817,248.6806,390.749,240.51,396.2483" style="stroke:#181818;stroke-width:1;"/><text fill="#000000" font-family="sans-serif" font-size="13" lengthAdjust="spacing" textLength="126.7183" x="411.86" y="336.0266">subscribe(snapshot)</text></g><!--link main to store--><g class="link" data-entity-1="ent0004" data-entity-2="ent0005" data-link-type="dependency" data-source-line="20" id="lnk12"><path d="M462.4,131.9383 C462.4,157.0383 462.4,188.8483 462.4,213.8983" fill="none" id="main-to-store" style="stroke:#181818;stroke-width:1;"/><polygon fill="#181818" points="462.4,219.8983,466.4,210.8983,462.4,214.8983,458.4,210.8983,462.4,219.8983" style="stroke:#181818;stroke-width:1;"/><text fill="#000000" font-family="sans-serif" font-size="13" lengthAdjust="spacing" textLength="114.2451" x="463.4" y="175.0366">new BudgetStore()</text></g><!--link main to storage--><g class="link" data-entity-1="ent0004" data-entity-2="ent0006" data-link-type="dependency" data-source-line="21" id="lnk13"><path d="M512.44,119.3783 C537.15,128.0583 565.97,141.5483 586.4,161.4683 C629.95,203.9383 598.3,246.4683 645.4,284.9583 C687.98,319.7383 731.57,271.6283 765.4,314.9583 C786.39,341.8383 761.2408,361.4822 724.6708,376.8622" fill="none" id="main-to-storage" style="stroke:#181818;stroke-width:1;"/><polygon fill="#181818" points="719.14,379.1883,728.9869,379.3864,723.749,377.2499,725.8855,372.012,719.14,379.1883" style="stroke:#181818;stroke-width:1;"/><text fill="#000000" font-family="sans-serif" font-size="13" lengthAdjust="spacing" textLength="141.7368" x="646.4" y="251.7866">new LocalStorage(KEY)</text></g><!--link main to ui--><g class="link" data-entity-1="ent0004" data-entity-2="ent0007" data-link-type="dependency" data-source-line="22" id="lnk14"><path d="M412.3,121.0983 C336.83,146.8983 196.62,207.3783 138.4,314.9583 C127.25,335.5783 136.0692,355.2516 149.7892,373.3016" fill="none" id="main-to-ui" style="stroke:#181818;stroke-width:1;"/><polygon fill="#181818" points="153.42,378.0783,151.1582,368.4926,150.3943,374.0977,144.7893,373.3338,153.42,378.0783" style="stroke:#181818;stroke-width:1;"/><text fill="#000000" font-family="sans-serif" font-size="13" lengthAdjust="spacing" textLength="90.0669" x="235.96" y="251.7866">mount({store})</text></g><!--link store to storage--><g class="link" data-entity-1="ent0005" data-entity-2="ent0006" data-link-type="dependency" data-source-line="23" id="lnk15"><path d="M497.49,273.6183 C513.4,285.7383 532.22,300.6383 548.4,314.9583 C571.31,335.2283 591.6274,355.6074 609.0974,373.8274" fill="none" id="store-to-storage" style="stroke:#181818;stroke-width:1;"/><polygon fill="#181818" points="613.25,378.1583,609.9084,368.8936,609.7895,374.5492,604.1339,374.4304,613.25,378.1583" style="stroke:#181818;stroke-width:1;"/><text fill="#000000" font-family="sans-serif" font-size="13" lengthAdjust="spacing" textLength="175.7222" x="582.21" y="336.0266">subscribe &#8594; save(snapshot)</text></g><!--link storage to ls--><g class="link" data-entity-1="ent0006" data-entity-2="ent0008" data-link-type="dependency" data-source-line="24" id="lnk16"><path d="M637.4,431.8483 C637.4,454.2883 637.4,480.7483 637.4,504.3283" fill="none" id="storage-to-ls" style="stroke:#181818;stroke-width:1;"/><polygon fill="#181818" points="637.4,510.3283,641.4,501.3283,637.4,505.3283,633.4,501.3283,637.4,510.3283" style="stroke:#181818;stroke-width:1;"/><text fill="#000000" font-family="sans-serif" font-size="13" lengthAdjust="spacing" textLength="109.9604" x="638.4" y="476.9766">setItem / getItem</text></g><!--link store to GMN17--><g class="link" data-entity-1="ent0005" data-entity-2="ent0018" data-link-type="association" data-source-line="27" id="lnk19"><path d="M499.29,219.8483 C526.44,201.7983 565.07,179.6283 602.9,169.9683 C674.82,151.6083 698.32,150.3483 769.9,169.9683 C799.52,178.0883 829.23,194.9183 852.71,210.7583" fill="none" id="store-GMN17" style="stroke:#181818;stroke-width:1;stroke-dasharray:7,7;"/></g><!--link ui to GMN20--><g class="link" data-entity-1="ent0007" data-entity-2="ent0021" data-link-type="association" data-source-line="34" id="lnk22"><path d="M240.45,381.0483 C350.06,343.0583 582.01,278.2583 769.9,330.9583 C801.76,339.8883 833.56,359.7383 856.63,376.6283" fill="none" id="ui-GMN20" style="stroke:#181818;stroke-width:1;stroke-dasharray:7,7;"/></g><?plantuml-src NLFBZXCn4BpxArevJGIRt3c0MDW3ho2n0Wa11u-dCsFYiIrtEo4RHUB41w3zmlqIsfayXhrvkggxgX_3bXt28jpTEIIupasB32zZX8VVz_0gz35uz199fhECXdD2fMXbVTH9zs1EZ5lUIfqa3ErRXoCATRe96-jRM6f7agqDXmIV2PDIKPkLRX4cbCny0Zi5yAtNriz-qdTVITsqZS5wdlu0JL2GmXXitaeP55OKJ-12Qyt0eX8ljFV1Q5TOHK4tEZ8cuI-oEqUj1qPYkcHAjEHcErXu_V43rDOtulz8obRjbMeqwrgJEBzEOKEbi1l9JGhJaLAbJRYwUYvfy0oCisP5C8TbI3qfYHNeO5XGGZukO2vscvjV4Jr9XtEPQn_MU0m8cgFedxxLa7yMeLoJIRR6YhoEr0MUgZAv_xGyRc0qnkeHfSnc88s7MBsx-JeY7jJwa3rNkqFT_NJavLBcR0WU_lm5qkkninEjf3WQfl26iPSks-6bb0yijsNRZY4ip_jT12ZRqSOWqKm2dr3EqnFimkefO4eXlTZ3CeLUC5nZsaAVMRCDVWPVjBFDuIsWisiv_WuJpXJw1ehUOrLP-q6opcIz24BAyiSKsRUPM3Ra6qnoGiV6I80dq5YAcas7nwi4cQMZYyW_?></g></svg>