<?plantuml 1.2026.2?><svg xmlns="http://www.w3.org/2000/svg" xmlns:xlink="http://www.w3.org/1999/xlink" contentStyleType="text/css" data-diagram-type="DESCRIPTION" height="465px" preserveAspectRatio="none" style="width:402px;height:465px;background:#FFFFFF;" version="1.1" viewBox="0 0 402 465" width="402px" zoomAndPan="magnify"><title>Deployment &#8212; static site</title><defs/><g><g class="title" data-source-line="1"><text fill="#000000" font-family="sans-serif" font-size="14" font-weight="bold" lengthAdjust="spacing" textLength="180.5713" x="103.7144" y="23.5352">Deployment &#8212; static site</text></g><!--cluster browser--><g class="cluster" data-qualified-name="browser" data-source-line="5" id="ent0002"><polygon fill="none" points="16,339.4583,26,329.4583,385,329.4583,385,438.4383,375,448.4383,16,448.4383,16,339.4583" style="stroke:#181818;stroke-width:1;"/><line style="stroke:#181818;stroke-width:1;" x1="375" x2="385" y1="339.4583" y2="329.4583"/><line style="stroke:#181818;stroke-width:1;" x1="16" x2="375" y1="339.4583" y2="339.4583"/><line style="stroke:#181818;stroke-width:1;" x1="375" x2="375" y1="339.4583" y2="448.4383"/><text fill="#000000" font-family="sans-serif" font-size="14" font-weight="bold" lengthAdjust="spacing" textLength="58.6865" x="167.1567" y="355.9934">Browser</text></g><!--cluster gh--><g class="cluster" data-qualified-name="gh" data-source-line="10" id="ent0005"><polygon fill="none" points="49,163.9783,59,153.9783,261,153.9783,261,270.4583,251,280.4583,49,280.4583,49,163.9783" style="stroke:#181818;stroke-width:1;"/><line style="stroke:#181818;stroke-width:1;" x1="251" x2="261" y1="163.9783" y2="153.9783"/><line style="stroke:#181818;stroke-width:1;" x1="49" x2="251" y1="163.9783" y2="163.9783"/><line style="stroke:#181818;stroke-width:1;" x1="251" x2="251" y1="163.9783" y2="280.4583"/><text fill="#000000" font-family="sans-serif" font-size="14" font-weight="bold" lengthAdjust="spacing" textLength="96.8447" x="102.5776" y="180.5134">GitHub Pages</text><text fill="#000000" font-family="sans-serif" font-size="14" font-weight="bold" lengthAdjust="spacing" textLength="136.3359" x="82.832" y="197.0017">(or any static host)</text></g><!--entity Vite-bundled SPA\n(index.html + JS + CSS)--><g class="entity" data-qualified-name="browser.Vite-bundled SPA.n.index.html . JS . CSS." data-source-line="6" id="ent0003"><rect fill="#F1F1F1" height="62.9766" rx="2.5" ry="2.5" style="stroke:#181818;stroke-width:0.5;" width="199.1475" x="32.43" y="369.4583"/><rect fill="#F1F1F1" height="10" style="stroke:#181818;stroke-width:0.5;" width="15" x="211.5775" y="374.4583"/><rect fill="#F1F1F1" height="2" style="stroke:#181818;stroke-width:0.5;" width="4" x="209.5775" y="376.4583"/><rect fill="#F1F1F1" height="2" style="stroke:#181818;stroke-width:0.5;" width="4" x="209.5775" y="380.4583"/><text fill="#000000" font-family="sans-serif" font-size="14" lengthAdjust="spacing" textLength="119.3623" x="47.43" y="402.9934">Vite-bundled SPA</text><text fill="#000000" font-family="sans-serif" font-size="14" lengthAdjust="spacing" textLength="159.1475" x="47.43" y="419.4817">(index.html + JS + CSS)</text></g><!--entity localStorage--><g class="entity" data-qualified-name="browser.localStorage" data-source-line="7" id="ent0004"><path d="M266.52,388.2083 C266.52,378.2083 318.0005,378.2083 318.0005,378.2083 C318.0005,378.2083 369.4809,378.2083 369.4809,388.2083 L369.4809,413.6966 C369.4809,423.6966 318.0005,423.6966 318.0005,423.6966 C318.0005,423.6966 266.52,423.6966 266.52,413.6966 L266.52,388.2083" fill="#F1F1F1" style="stroke:#181818;stroke-width:0.5;"/><path d="M266.52,388.2083 C266.52,398.2083 318.0005,398.2083 318.0005,398.2083 C318.0005,398.2083 369.4809,398.2083 369.4809,388.2083" fill="none" style="stroke:#181818;stroke-width:0.5;"/><text fill="#000000" font-family="sans-serif" font-size="14" lengthAdjust="spacing" textLength="82.9609" x="276.52" y="415.7434">localStorage</text></g><!--entity dist--><g class="entity" data-qualified-name="gh.dist" data-source-line="11" id="ent0006"><path d="M99.5,209.9783 L140.5,209.9783 A3.75,3.75 0 0 1 143,212.4783 L150,230.9783 L164.5,230.9783 A2.5,2.5 0 0 1 167,233.4783 L167,261.9666 A2.5,2.5 0 0 1 164.5,264.4666 L99.5,264.4666 A2.5,2.5 0 0 1 97,261.9666 L97,212.4783 A2.5,2.5 0 0 1 99.5,209.9783" fill="#F1F1F1" style="stroke:#181818;stroke-width:0.5;"/><line style="stroke:#181818;stroke-width:0.5;" x1="97" x2="150" y1="230.9783" y2="230.9783"/><text fill="#000000" font-family="sans-serif" font-size="14" lengthAdjust="spacing" textLength="32.5732" x="107" y="251.5134">dist/</text></g><!--entity Vite build--><g class="entity" data-qualified-name="Vite build" data-source-line="14" id="ent0007"><rect fill="#F1F1F1" height="46.4883" rx="2.5" ry="2.5" style="stroke:#181818;stroke-width:0.5;" width="105.0713" x="79.46" y="44.4883"/><rect fill="#F1F1F1" height="10" style="stroke:#181818;stroke-width:0.5;" width="15" x="164.5313" y="49.4883"/><rect fill="#F1F1F1" height="2" style="stroke:#181818;stroke-width:0.5;" width="4" x="162.5313" y="51.4883"/><rect fill="#F1F1F1" height="2" style="stroke:#181818;stroke-width:0.5;" width="4" x="162.5313" y="55.4883"/><text fill="#000000" font-family="sans-serif" font-size="14" lengthAdjust="spacing" textLength="65.0713" x="94.46" y="78.0234">Vite build</text></g><!--link Vite build to dist--><g class="link" data-entity-1="ent0007" data-entity-2="ent0006" data-link-type="dependency" data-source-line="14" id="lnk8"><path d="M132,91.3183 C132,122.0383 132,170.8883 132,203.5783" fill="none" id="Vite build-to-dist" style="stroke:#181818;stroke-width:1;"/><polygon fill="#181818" points="132,209.5783,136,200.5783,132,204.5783,128,200.5783,132,209.5783" style="stroke:#181818;stroke-width:1;"/><text fill="#000000" font-family="sans-serif" font-size="13" lengthAdjust="spacing" textLength="90.0161" x="133" y="134.5466">npm run build</text></g><!--link dist to Vite-bundled SPA\n(index.html + JS + CSS)--><g class="link" data-entity-1="ent0006" data-entity-2="ent0003" data-link-type="dependency" data-source-line="15" id="lnk9"><path d="M132,264.9283 C132,293.5483 132,332.9183 132,363.0583" fill="none" id="dist-to-Vite-bundled SPA\n(index.html + JS + CSS)" style="stroke:#181818;stroke-width:1;"/><polygon fill="#181818" points="132,369.0583,136,360.0583,132,364.0583,128,360.0583,132,369.0583" style="stroke:#181818;stroke-width:1;"/><text fill="#000000" font-family="sans-serif" font-size="13" lengthAdjust="spacing" textLength="61.9531" x="133" y="310.0266">HTTP GET</text></g><?plantuml-src bOzDJiCm48NtFiLJLbGei6U1n9zQiOhaY0rqCQdTnCAn8yz4fK98788JSX8SLpq0cz5elfdtteWJR_5e9n-Fems2t-yVi92u7TY9LOhVNPWeqGWUoCI32ptsv3cZ48r5TP_YWMsgG8pkrEDJ0Qyl-Rxkvc2yDT3DtLkuSC7OZwj1HezBFEjS7hHURVEs8Q6EEElvk2El9IRgRQM-pZPh9vkvGvEdd9LY0eNZEUeGMLObGJyKyttq9kUeZ6EvBc3f5hKI2ztilDcYhcyBm0t2D2BDuKHK6Ixq7rzaaKtRDbW_jNy0?></g></svg>