<?plantuml 1.2026.2?><svg xmlns="http://www.w3.org/2000/svg" xmlns:xlink="http://www.w3.org/1999/xlink" contentStyleType="text/css" data-diagram-type="SEQUENCE" height="613px" preserveAspectRatio="none" style="width:905px;height:613px;background:#FFFFFF;" version="1.1" viewBox="0 0 905 613" width="905px" zoomAndPan="magnify"><title>Sequence &#8212; add expense</title><defs/><g><text fill="#000000" font-family="sans-serif" font-size="14" font-weight="bold" lengthAdjust="spacing" textLength="181.6172" x="362.7676" y="28.5352">Sequence &#8212; add expense</text><rect fill="none" height="291.75" style="stroke:#000000;stroke-width:1.5;" width="639.1479" x="259.0044" y="223.9082"/><g class="participant-lifeline" data-entity-uid="part1" data-qualified-name="User" id="part1-lifeline"><g><title>User</title><rect fill="#000000" fill-opacity="0.00000" height="413.6816" width="8" x="19.1826" y="118.9766"/><line style="stroke:#181818;stroke-width:0.5;stroke-dasharray:5,5;" x1="23" x2="23" y1="118.9766" y2="532.6582"/></g></g><g class="participant-lifeline" data-entity-uid="part2" data-qualified-name="Form" id="part2-lifeline"><g><title>Expense form</title><rect fill="#000000" fill-opacity="0.00000" height="413.6816" width="8" x="180.3936" y="118.9766"/><line style="stroke:#181818;stroke-width:0.5;stroke-dasharray:5,5;" x1="183.7007" x2="183.7007" y1="118.9766" y2="532.6582"/></g></g><g class="participant-lifeline" data-entity-uid="part3" data-qualified-name="UI" id="part3-lifeline"><g><title>ui.js</title><rect fill="#000000" fill-opacity="0.00000" height="413.6816" width="8" x="286.2847" y="118.9766"/><line style="stroke:#181818;stroke-width:0.5;stroke-dasharray:5,5;" x1="290.0044" x2="290.0044" y1="118.9766" y2="532.6582"/></g></g><g class="participant-lifeline" data-entity-uid="part4" data-qualified-name="Store" id="part4-lifeline"><g><title>BudgetStore</title><rect fill="#000000" fill-opacity="0.00000" height="413.6816" width="8" x="492.0879" y="118.9766"/><line style="stroke:#181818;stroke-width:0.5;stroke-dasharray:5,5;" x1="495.9766" x2="495.9766" y1="118.9766" y2="532.6582"/></g></g><g class="participant-lifeline" data-entity-uid="part5" data-qualified-name="Storage" id="part5-lifeline"><g><title>LocalStorage</title><rect fill="#000000" fill-opacity="0.00000" height="413.6816" width="8" x="697.8911" y="118.9766"/><line style="stroke:#181818;stroke-width:0.5;stroke-dasharray:5,5;" x1="701.7017" x2="701.7017" y1="118.9766" y2="532.6582"/></g></g><g class="participant-lifeline" data-entity-uid="part6" data-qualified-name="LS" id="part6-lifeline"><g><title>localStorage</title><rect fill="#000000" fill-opacity="0.00000" height="413.6816" width="8" x="839.6719" y="118.9766"/><line style="stroke:#181818;stroke-width:0.5;stroke-dasharray:5,5;" x1="843.1914" x2="843.1914" y1="118.9766" y2="532.6582"/></g></g><g class="participant participant-head" data-entity-uid="part1" data-qualified-name="User" id="part1-head"><text fill="#000000" font-family="sans-serif" font-size="14" lengthAdjust="spacing" textLength="30.3652" x="5" y="116.0234">User</text><ellipse cx="23.1826" cy="50.9883" fill="#E2E2F0" rx="8" ry="8" style="stroke:#181818;stroke-width:0.5;"/><path d="M23.1826,58.9883 L23.1826,85.9883 M10.1826,66.9883 L36.1826,66.9883 M23.1826,85.9883 L10.1826,100.9883 M23.1826,85.9883 L36.1826,100.9883" fill="none" style="stroke:#181818;stroke-width:0.5;"/></g><g class="participant participant-tail" data-entity-uid="part1" data-qualified-name="User" id="part1-tail"><text fill="#000000" font-family="sans-serif" font-size="14" lengthAdjust="spacing" textLength="30.3652" x="5" y="545.1934">User</text><ellipse cx="23.1826" cy="556.6465" fill="#E2E2F0" rx="8" ry="8" style="stroke:#181818;stroke-width:0.5;"/><path d="M23.1826,564.6465 L23.1826,591.6465 M10.1826,572.6465 L36.1826,572.6465 M23.1826,591.6465 L10.1826,606.6465 M23.1826,591.6465 L36.1826,606.6465" fill="none" style="stroke:#181818;stroke-width:0.5;"/></g><g class="participant participant-head" data-entity-uid="part2" data-qualified-name="Form" id="part2-head"><rect fill="#E2E2F0" height="30.4883" rx="2.5" ry="2.5" style="stroke:#181818;stroke-width:0.5;" width="107.3857" x="130.7007" y="87.4883"/><text fill="#000000" font-family="sans-serif" font-size="14" lengthAdjust="spacing" textLength="93.3857" x="137.7007" y="108.0234">Expense form</text></g><g class="participant participant-tail" data-entity-uid="part2" data-qualified-name="Form" id="part2-tail"><rect fill="#E2E2F0" height="30.4883" rx="2.5" ry="2.5" style="stroke:#181818;stroke-width:0.5;" width="107.3857" x="130.7007" y="531.6582"/><text fill="#000000" font-family="sans-serif" font-size="14" lengthAdjust="spacing" textLength="93.3857" x="137.7007" y="552.1934">Expense form</text></g><g class="participant participant-head" data-entity-uid="part3" data-qualified-name="UI" id="part3-head"><rect fill="#E2E2F0" height="30.4883" rx="2.5" ry="2.5" style="stroke:#181818;stroke-width:0.5;" width="42.5605" x="269.0044" y="87.4883"/><text fill="#000000" font-family="sans-serif" font-size="14" lengthAdjust="spacing" textLength="28.5605" x="276.0044" y="108.0234">ui.js</text></g><g class="participant participant-tail" data-entity-uid="part3" data-qualified-name="UI" id="part3-tail"><rect fill="#E2E2F0" height="30.4883" rx="2.5" ry="2.5" style="stroke:#181818;stroke-width:0.5;" width="42.5605" x="269.0044" y="531.6582"/><text fill="#000000" font-family="sans-serif" font-size="14" lengthAdjust="spacing" textLength="28.5605" x="276.0044" y="552.1934">ui.js</text></g><g class="participant participant-head" data-entity-uid="part4" data-qualified-name="Store" id="part4-head"><rect fill="#E2E2F0" height="30.4883" rx="2.5" ry="2.5" style="stroke:#181818;stroke-width:0.5;" width="96.2227" x="447.9766" y="87.4883"/><text fill="#000000" font-family="sans-serif" font-size="14" lengthAdjust="spacing" textLength="82.2227" x="454.9766" y="108.0234">BudgetStore</text></g><g class="participant participant-tail" data-entity-uid="part4" data-qualified-name="Store" id="part4-tail"><rect fill="#E2E2F0" height="30.4883" rx="2.5" ry="2.5" style="stroke:#181818;stroke-width:0.5;" width="96.2227" x="447.9766" y="531.6582"/><text fill="#000000" font-family="sans-serif" font-size="14" lengthAdjust="spacing" textLength="82.2227" x="454.9766" y="552.1934">BudgetStore</text></g><g class="participant participant-head" data-entity-uid="part5" data-qualified-name="Storage" id="part5-head"><rect fill="#E2E2F0" height="46.9766" rx="2.5" ry="2.5" style="stroke:#181818;stroke-width:0.5;" width="100.3789" x="651.7017" y="71"/><text fill="#000000" font-family="sans-serif" font-size="14" lengthAdjust="spacing" textLength="86.3789" x="658.7017" y="91.5352">LocalStorage</text><text fill="#000000" font-family="sans-serif" font-size="14" lengthAdjust="spacing" textLength="51.8506" x="675.9658" y="108.0234">adapter</text></g><g class="participant participant-tail" data-entity-uid="part5" data-qualified-name="Storage" id="part5-tail"><rect fill="#E2E2F0" height="46.9766" rx="2.5" ry="2.5" style="stroke:#181818;stroke-width:0.5;" width="100.3789" x="651.7017" y="531.6582"/><text fill="#000000" font-family="sans-serif" font-size="14" lengthAdjust="spacing" textLength="86.3789" x="658.7017" y="552.1934">LocalStorage</text><text fill="#000000" font-family="sans-serif" font-size="14" lengthAdjust="spacing" textLength="51.8506" x="675.9658" y="568.6816">adapter</text></g><g class="participant participant-head" data-entity-uid="part6" data-qualified-name="LS" id="part6-head"><text fill="#000000" font-family="sans-serif" font-size="14" lengthAdjust="spacing" textLength="82.9609" x="799.1914" y="116.0234">localStorage</text><path d="M825.6719,66.4883 C825.6719,56.4883 843.6719,56.4883 843.6719,56.4883 C843.6719,56.4883 861.6719,56.4883 861.6719,66.4883 L861.6719,92.4883 C861.6719,102.4883 843.6719,102.4883 843.6719,102.4883 C843.6719,102.4883 825.6719,102.4883 825.6719,92.4883 L825.6719,66.4883" fill="#E2E2F0" style="stroke:#181818;stroke-width:0.5;"/><path d="M825.6719,66.4883 C825.6719,76.4883 843.6719,76.4883 843.6719,76.4883 C843.6719,76.4883 861.6719,76.4883 861.6719,66.4883" fill="none" style="stroke:#181818;stroke-width:0.5;"/></g><g class="participant participant-tail" data-entity-uid="part6" data-qualified-name="LS" id="part6-tail"><text fill="#000000" font-family="sans-serif" font-size="14" lengthAdjust="spacing" textLength="82.9609" x="799.1914" y="545.1934">localStorage</text><path d="M825.6719,558.1465 C825.6719,548.1465 843.6719,548.1465 843.6719,548.1465 C843.6719,548.1465 861.6719,548.1465 861.6719,558.1465 L861.6719,584.1465 C861.6719,594.1465 843.6719,594.1465 843.6719,594.1465 C843.6719,594.1465 825.6719,594.1465 825.6719,584.1465 L825.6719,558.1465" fill="#E2E2F0" style="stroke:#181818;stroke-width:0.5;"/><path d="M825.6719,558.1465 C825.6719,568.1465 843.6719,568.1465 843.6719,568.1465 C843.6719,568.1465 861.6719,568.1465 861.6719,558.1465" fill="none" style="stroke:#181818;stroke-width:0.5;"/></g><g class="message" data-entity-1="part1" data-entity-2="part2" id="msg1"><polygon fill="#181818" points="172.3936,146.2871,182.3936,150.2871,172.3936,154.2871,176.3936,150.2871" style="stroke:#181818;stroke-width:1;"/><line style="stroke:#181818;stroke-width:1;" x1="23.1826" x2="178.3936" y1="150.2871" y2="150.2871"/><text fill="#000000" font-family="sans-serif" font-size="13" lengthAdjust="spacing" textLength="137.2109" x="30.1826" y="145.5449">submit (title, amount)</text></g><g class="message" data-entity-1="part2" data-entity-2="part3" id="msg2"><polygon fill="#181818" points="278.2847,175.5977,288.2847,179.5977,278.2847,183.5977,282.2847,179.5977" style="stroke:#181818;stroke-width:1;"/><line style="stroke:#181818;stroke-width:1;" x1="184.3936" x2="284.2847" y1="179.5977" y2="179.5977"/><text fill="#000000" font-family="sans-serif" font-size="13" lengthAdjust="spacing" textLength="81.8911" x="191.3936" y="174.8555">submit event</text></g><g class="message" data-entity-1="part3" data-entity-2="part4" id="msg3"><polygon fill="#181818" points="484.0879,204.9082,494.0879,208.9082,484.0879,212.9082,488.0879,208.9082" style="stroke:#181818;stroke-width:1;"/><line style="stroke:#181818;stroke-width:1;" x1="290.2847" x2="490.0879" y1="208.9082" y2="208.9082"/><text fill="#000000" font-family="sans-serif" font-size="13" lengthAdjust="spacing" textLength="173.8433" x="297.2847" y="204.166">addExpense({title, amount})</text></g><path d="M259.0044,223.9082 L321.1431,223.9082 L321.1431,231.2188 L311.1431,241.2188 L259.0044,241.2188 L259.0044,223.9082" fill="#EEEEEE" style="stroke:#000000;stroke-width:1.5;"/><rect fill="none" height="291.75" style="stroke:#000000;stroke-width:1.5;" width="639.1479" x="259.0044" y="223.9082"/><text fill="#000000" font-family="sans-serif" font-size="13" font-weight="bold" lengthAdjust="spacing" textLength="17.1387" x="274.0044" y="237.4766">alt</text><text fill="#000000" font-family="sans-serif" font-size="11" font-weight="bold" lengthAdjust="spacing" textLength="106.8257" x="336.1431" y="236.543">[validation passes]</text><g class="message" data-entity-1="part4" data-entity-2="part4" id="msg4"><line style="stroke:#181818;stroke-width:1;" x1="496.0879" x2="538.0879" y1="262.5293" y2="262.5293"/><line style="stroke:#181818;stroke-width:1;" x1="538.0879" x2="538.0879" y1="262.5293" y2="275.5293"/><line style="stroke:#181818;stroke-width:1;" x1="497.0879" x2="538.0879" y1="275.5293" y2="275.5293"/><polygon fill="#181818" points="507.0879,271.5293,497.0879,275.5293,507.0879,279.5293,503.0879,275.5293" style="stroke:#181818;stroke-width:1;"/><text fill="#000000" font-family="sans-serif" font-size="13" lengthAdjust="spacing" textLength="148.4844" x="503.0879" y="257.7871">push expense, bump id</text></g><g class="message" data-entity-1="part4" data-entity-2="part3" id="msg5"><polygon fill="#181818" points="301.2847,300.8398,291.2847,304.8398,301.2847,308.8398,297.2847,304.8398" style="stroke:#181818;stroke-width:1;"/><line style="stroke:#181818;stroke-width:1;" x1="295.2847" x2="495.0879" y1="304.8398" y2="304.8398"/><text fill="#000000" font-family="sans-serif" font-size="13" lengthAdjust="spacing" textLength="181.8032" x="307.2847" y="300.0977">subscribe callback(snapshot)</text></g><g class="message" data-entity-1="part4" data-entity-2="part5" id="msg6"><polygon fill="#181818" points="689.8911,330.1504,699.8911,334.1504,689.8911,338.1504,693.8911,334.1504" style="stroke:#181818;stroke-width:1;"/><line style="stroke:#181818;stroke-width:1;" x1="496.0879" x2="695.8911" y1="334.1504" y2="334.1504"/><text fill="#000000" font-family="sans-serif" font-size="13" lengthAdjust="spacing" textLength="181.8032" x="503.0879" y="329.4082">subscribe callback(snapshot)</text></g><g class="message" data-entity-1="part5" data-entity-2="part6" id="msg7"><polygon fill="#181818" points="831.6719,359.4609,841.6719,363.4609,831.6719,367.4609,835.6719,363.4609" style="stroke:#181818;stroke-width:1;"/><line style="stroke:#181818;stroke-width:1;" x1="701.8911" x2="837.6719" y1="363.4609" y2="363.4609"/><text fill="#000000" font-family="sans-serif" font-size="13" lengthAdjust="spacing" textLength="117.7808" x="708.8911" y="358.7188">setItem(KEY, JSON)</text></g><g class="message" data-entity-1="part3" data-entity-2="part3" id="msg8"><line style="stroke:#181818;stroke-width:1;" x1="290.2847" x2="332.2847" y1="408.082" y2="408.082"/><line style="stroke:#181818;stroke-width:1;" x1="332.2847" x2="332.2847" y1="408.082" y2="421.082"/><line style="stroke:#181818;stroke-width:1;" x1="291.2847" x2="332.2847" y1="421.082" y2="421.082"/><polygon fill="#181818" points="301.2847,417.082,291.2847,421.082,301.2847,425.082,297.2847,421.082" style="stroke:#181818;stroke-width:1;"/><text fill="#000000" font-family="sans-serif" font-size="13" lengthAdjust="spacing" textLength="155.7144" x="297.2847" y="388.0293">re-render expense list +</text><text fill="#000000" font-family="sans-serif" font-size="13" lengthAdjust="spacing" textLength="146.3706" x="297.2847" y="403.3398">updated totals/balance</text></g><line style="stroke:#000000;stroke-width:1;stroke-dasharray:2,2;" x1="259.0044" x2="898.1523" y1="430.082" y2="430.082"/><text fill="#000000" font-family="sans-serif" font-size="11" font-weight="bold" lengthAdjust="spacing" textLength="92.3667" x="264.0044" y="440.7168">[validation fails]</text><g class="message" data-entity-1="part4" data-entity-2="part3" id="msg9"><polygon fill="#181818" points="301.2847,461.3477,291.2847,465.3477,301.2847,469.3477,297.2847,465.3477" style="stroke:#181818;stroke-width:1;"/><line style="stroke:#181818;stroke-width:1;stroke-dasharray:2,2;" x1="295.2847" x2="495.0879" y1="465.3477" y2="465.3477"/><text fill="#000000" font-family="sans-serif" font-size="13" lengthAdjust="spacing" textLength="97.1509" x="307.2847" y="460.6055">{ok:false, error}</text></g><g class="message" data-entity-1="part3" data-entity-2="part3" id="msg10"><line style="stroke:#181818;stroke-width:1;" x1="290.2847" x2="332.2847" y1="494.6582" y2="494.6582"/><line style="stroke:#181818;stroke-width:1;" x1="332.2847" x2="332.2847" y1="494.6582" y2="507.6582"/><line style="stroke:#181818;stroke-width:1;" x1="291.2847" x2="332.2847" y1="507.6582" y2="507.6582"/><polygon fill="#181818" points="301.2847,503.6582,291.2847,507.6582,301.2847,511.6582,297.2847,507.6582" style="stroke:#181818;stroke-width:1;"/><text fill="#000000" font-family="sans-serif" font-size="13" lengthAdjust="spacing" textLength="126.3501" x="297.2847" y="489.916">show feedback alert</text></g><?plantuml-src ZPAnJWCn38RtF8NLgHKjx1qOa8fKg60uTK1YyLtSDZINXCJN8bL8F0HFo9FWIrkuOsABxC_E__yo6xO41Rqsv2g2huzFGAs1tWAvH4gbhN418zQGDgZzthWrhD2sBQpOHrWcYae8DfK9w1W6i-Cih7oi1u09RkNHHnfp-P9oRpdlTsuQlIOkP3FbVdxraOMlqBPrNDEpGus1AVx0KbGQ6KiK2GFROJEoA9Hg9SFaEkk2AQIch0t3aDiene2rRnoFLEuAjPp_ChGZnqegKi_Af2LndHmF3xqLxoE5bc67reWWunq4J8cIWjDiPqbeqkOS-XZAfWvWT1SygqXLD2M1kB8bLjjXSXZInelUFrl5yFycMb1c5aMB4y-Pwk7zx6aCTyNZGmiTxMO1aIQHd9RuJbh1ciHmyUoQ81v90tkMwxWgqQBSaoAvb6u2ApIs4y1vxy5lf_cgna0n-lZU_rRaxc55f5i3W9OYAv7n3G00?></g></svg>